<svg width="14" height="16" viewBox="0 0 14 16" fill="none" xmlns="http://www.w3.org/2000/svg">
<path d="M7 0.125L0.25 2.375V9.125C0.25 12.8533 3.27168 15.875 7 15.875C10.7283 15.875 13.75 12.8533 13.75 9.125V2.375L7 0.125ZM12.4844 9.125C12.4844 12.1537 10.0287 14.6094 7 14.6094C3.97129 14.6094 1.51562 12.1537 1.51562 9.125V3.32422L7 1.39062L12.4844 3.32422V9.125Z" fill="white"/>
<path d="M4.65192 7.35137C4.59326 7.29245 4.52355 7.24569 4.44678 7.21379C4.37001 7.18189 4.28769 7.16547 4.20455 7.16547C4.12142 7.16547 4.0391 7.18189 3.96233 7.21379C3.88556 7.24569 3.81584 7.29245 3.75719 7.35137C3.69827 7.41002 3.65152 7.47973 3.61961 7.5565C3.58771 7.63328 3.57129 7.71559 3.57129 7.79873C3.57129 7.88187 3.58771 7.96418 3.61961 8.04096C3.65152 8.11773 3.69827 8.18744 3.75719 8.24609L6.0318 10.5207L6.06871 10.5576C6.12419 10.6132 6.19009 10.6573 6.26263 10.6874C6.33517 10.7175 6.41293 10.733 6.49147 10.733C6.57 10.733 6.64776 10.7175 6.7203 10.6874C6.79285 10.6573 6.85874 10.6132 6.91422 10.5576L10.8429 6.62891C10.8985 6.57343 10.9426 6.50753 10.9727 6.43499C11.0028 6.36245 11.0183 6.28469 11.0183 6.20615C11.0183 6.12762 11.0028 6.04986 10.9727 5.97732C10.9426 5.90477 10.8985 5.83888 10.8429 5.7834L10.7937 5.73418C10.7382 5.6786 10.6723 5.6345 10.5998 5.60441C10.5273 5.57432 10.4495 5.55884 10.371 5.55884C10.2924 5.55884 10.2147 5.57432 10.1421 5.60441C10.0696 5.6345 10.0037 5.6786 9.9482 5.73418L6.49059 9.19004L4.65192 7.35137Z" fill="white"/>
</svg>
