<svg width="17" height="16" viewBox="0 0 17 16" fill="none" xmlns="http://www.w3.org/2000/svg">
<path d="M6.45452 15.3182C6.83108 15.3182 7.13634 15.013 7.13634 14.6364C7.13634 14.2599 6.83108 13.9546 6.45452 13.9546C6.07797 13.9546 5.77271 14.2599 5.77271 14.6364C5.77271 15.013 6.07797 15.3182 6.45452 15.3182Z" stroke="white" stroke-linecap="round" stroke-linejoin="round"/>
<path d="M13.9545 15.3182C14.3311 15.3182 14.6363 15.013 14.6363 14.6364C14.6363 14.2599 14.3311 13.9546 13.9545 13.9546C13.578 13.9546 13.2727 14.2599 13.2727 14.6364C13.2727 15.013 13.578 15.3182 13.9545 15.3182Z" stroke="white" stroke-linecap="round" stroke-linejoin="round"/>
<path d="M1 1H3.72727L5.55455 10.1295C5.61689 10.4435 5.78766 10.7254 6.03696 10.9261C6.28626 11.1268 6.5982 11.2334 6.91818 11.2273H13.5455C13.8654 11.2334 14.1774 11.1268 14.4267 10.9261C14.676 10.7254 14.8467 10.4435 14.9091 10.1295L16 4.40909H4.40909" stroke="white" stroke-linecap="round" stroke-linejoin="round"/>
</svg>
