<svg width="11" height="10" viewBox="0 0 11 10" fill="none" xmlns="http://www.w3.org/2000/svg">
<path d="M9.4314 0.511053C9.33339 0.355538 9.19516 0.226816 9.03004 0.137301C8.86492 0.0477855 8.67848 0.000498226 8.4887 0H2.5113C2.1274 0 1.76605 0.195789 1.5686 0.511053L0.0786503 2.88684C0.0270907 2.96864 -0.000107231 3.06237 3.17723e-07 3.15789C0.00219686 3.6659 0.197722 4.15574 0.55 4.53579V8.94737C0.55 9.52789 1.04335 10 1.65 10H9.35C9.95665 10 10.45 9.52789 10.45 8.94737V4.53579C10.8023 4.15574 10.9978 3.6659 11 3.15789C11.0001 3.06237 10.9729 2.96864 10.9213 2.88684L9.4314 0.511053ZM9.8912 3.29C9.85725 3.54412 9.72777 3.77771 9.52695 3.94712C9.32613 4.11653 9.06771 4.21016 8.8 4.21053C8.19335 4.21053 7.7 3.73842 7.7 3.15789C7.7 3.12211 7.68625 3.09053 7.67855 3.05684L7.68955 3.05474L7.271 1.05263H8.4887L9.8912 3.29ZM4.85045 1.05263H6.149L6.59615 3.19211C6.5769 3.75632 6.094 4.21053 5.5 4.21053C4.906 4.21053 4.4231 3.75632 4.40385 3.19211L4.85045 1.05263ZM2.5113 1.05263H3.729L3.311 3.05474L3.322 3.05684C3.31375 3.09053 3.3 3.12211 3.3 3.15789C3.3 3.73842 2.80665 4.21053 2.2 4.21053C1.93229 4.21016 1.67387 4.11653 1.47305 3.94712C1.27223 3.77771 1.14275 3.54412 1.1088 3.29L2.5113 1.05263ZM4.4 8.94737V7.36842H6.6V8.94737H4.4ZM7.7 8.94737V7.36842C7.7 6.78789 7.20665 6.31579 6.6 6.31579H4.4C3.79335 6.31579 3.3 6.78789 3.3 7.36842V8.94737H1.65V5.18842C1.82655 5.23211 2.0086 5.26316 2.2 5.26316C2.5123 5.26332 2.82103 5.19968 3.10558 5.07652C3.39012 4.95335 3.64391 4.77349 3.85 4.54895C4.25315 4.98684 4.84385 5.26316 5.5 5.26316C6.15615 5.26316 6.74685 4.98684 7.15 4.54895C7.35609 4.77349 7.60988 4.95335 7.89442 5.07652C8.17896 5.19968 8.4877 5.26332 8.8 5.26316C8.9914 5.26316 9.17345 5.23211 9.35 5.18842V8.94737H7.7Z" fill="#B0B0B0"/>
</svg>
