<svg width="17" height="14" viewBox="0 0 17 14" fill="none" xmlns="http://www.w3.org/2000/svg">
<path d="M14.732 13.5885C14.6576 13.5886 14.5839 13.574 14.5151 13.5455C14.4464 13.517 14.3839 13.4752 14.3315 13.4224L1.86591 0.956883C1.76414 0.849758 1.70824 0.707113 1.71013 0.559361C1.71202 0.41161 1.77156 0.270442 1.87604 0.165958C1.98053 0.061473 2.12169 0.00193818 2.26944 4.64916e-05C2.4172 -0.00184519 2.55984 0.054056 2.66697 0.155831L15.1325 12.6214C15.2117 12.7006 15.2656 12.8015 15.2875 12.9114C15.3093 13.0213 15.2981 13.1352 15.2552 13.2387C15.2123 13.3422 15.1398 13.4307 15.0466 13.4929C14.9535 13.5552 14.844 13.5885 14.732 13.5885Z" fill="black" fill-opacity="0.6"/>
<path d="M8.21587 8.90868L6.38181 7.07461C6.3713 7.06419 6.35779 7.05732 6.34318 7.05497C6.32856 7.05263 6.31358 7.05491 6.30034 7.06152C6.28709 7.06812 6.27624 7.07871 6.26933 7.09179C6.26241 7.10487 6.25976 7.1198 6.26176 7.13446C6.3358 7.61029 6.55922 8.05025 6.89973 8.39076C7.24024 8.73127 7.6802 8.95469 8.15602 9.02873C8.17069 9.03073 8.18561 9.02808 8.19869 9.02116C8.21178 9.01424 8.22237 9.0034 8.22897 8.99015C8.23557 8.97691 8.23786 8.96192 8.23551 8.94731C8.23316 8.9327 8.22629 8.91919 8.21587 8.90868Z" fill="black" fill-opacity="0.6"/>
<path d="M8.78256 4.66965L10.6195 6.50583C10.6299 6.5164 10.6435 6.5234 10.6582 6.52583C10.6729 6.52826 10.6879 6.526 10.7013 6.51938C10.7146 6.51275 10.7255 6.5021 10.7324 6.48892C10.7394 6.47575 10.742 6.46072 10.7399 6.44599C10.666 5.96951 10.4424 5.52891 10.1015 5.18797C9.76054 4.84703 9.31994 4.62345 8.84347 4.5496C8.82871 4.54732 8.81362 4.54976 8.80033 4.55658C8.78705 4.56339 8.77626 4.57423 8.76951 4.58755C8.76275 4.60086 8.76038 4.61597 8.76272 4.63071C8.76506 4.64546 8.77201 4.65908 8.78256 4.66965Z" fill="black" fill-opacity="0.6"/>
<path d="M16.8214 7.40391C16.9386 7.21989 17.0006 7.0061 17 6.78791C16.9993 6.56971 16.9361 6.35628 16.8178 6.17294C15.8808 4.72382 14.665 3.49285 13.3023 2.61283C11.7927 1.63825 10.1282 1.12299 8.48788 1.12299C7.62312 1.12417 6.76424 1.26517 5.94448 1.54051C5.92154 1.54814 5.90093 1.56152 5.88462 1.57937C5.86831 1.59722 5.85684 1.61894 5.8513 1.64248C5.84576 1.66602 5.84634 1.69058 5.85298 1.71383C5.85962 1.73708 5.8721 1.75824 5.88924 1.7753L7.56217 3.44823C7.57955 3.46564 7.60116 3.47823 7.62488 3.48475C7.6486 3.49127 7.67361 3.4915 7.69745 3.48542C8.26451 3.34723 8.85759 3.35735 9.4196 3.51482C9.98161 3.67229 10.4936 3.97179 10.9063 4.3845C11.319 4.7972 11.6185 5.30921 11.776 5.87122C11.9335 6.43323 11.9436 7.02631 11.8054 7.59337C11.7994 7.61716 11.7997 7.6421 11.8062 7.66575C11.8127 7.6894 11.8252 7.71095 11.8426 7.7283L14.2489 10.1364C14.274 10.1615 14.3075 10.1763 14.3429 10.1778C14.3783 10.1794 14.413 10.1677 14.4402 10.1449C15.3664 9.35539 16.1691 8.43146 16.8214 7.40391Z" fill="black" fill-opacity="0.6"/>
<path d="M8.49923 10.1888C7.98458 10.1889 7.47664 10.0721 7.01371 9.84721C6.55078 9.62236 6.14494 9.29535 5.82679 8.89082C5.50864 8.48629 5.28648 8.01481 5.17706 7.51193C5.06765 7.00905 5.07383 6.48789 5.19515 5.98775C5.20117 5.96396 5.2009 5.93902 5.19439 5.91537C5.18787 5.89172 5.17532 5.87017 5.15797 5.85282L2.79093 3.48472C2.76583 3.4596 2.73221 3.44481 2.69673 3.4433C2.66124 3.4418 2.62649 3.45367 2.59935 3.47658C1.73561 4.21353 0.934913 5.1102 0.202917 6.15809C0.0747859 6.34199 0.00421892 6.55983 0.000183311 6.78394C-0.0038523 7.00804 0.0588257 7.22828 0.180253 7.41668C1.11552 8.88032 2.31887 10.1131 3.66069 10.981C5.17249 11.9595 6.79655 12.4553 8.48789 12.4553C9.36138 12.453 10.2292 12.315 11.0603 12.0463C11.0835 12.0389 11.1043 12.0257 11.1209 12.0079C11.1375 11.9901 11.1492 11.9683 11.1549 11.9447C11.1606 11.9211 11.1602 11.8964 11.1536 11.873C11.147 11.8496 11.1345 11.8283 11.1173 11.8111L9.43627 10.1304C9.41892 10.1131 9.39737 10.1005 9.37372 10.094C9.35006 10.0875 9.32512 10.0872 9.30134 10.0932C9.03872 10.1569 8.76945 10.189 8.49923 10.1888Z" fill="black" fill-opacity="0.6"/>
</svg>
